<?xml version="1.0" encoding="UTF-8"?>
<svg id="Layer_2" data-name="Layer 2" xmlns="http://www.w3.org/2000/svg" viewBox="0 0 722.28 139.59">
  <defs>
    <style>
      .cls-1 {
        font-family: Gotham-Black, Gotham;
        font-size: 47.4px;
        font-weight: 800;
      }

      .cls-2 {
        fill: #ff0;
      }
    </style>
  </defs>
  <g id="Layer_2-2" data-name="Layer 2">
    <g>
      <g>
        <rect class="cls-2" y="12.31" width="564.55" height="115.25"/>
        <g>
          <polygon points="536.8 17.19 563.17 139.59 722.28 103.41 669.25 18.87 531.75 0 536.8 17.19"/>
          <polygon class="cls-2" points="685.33 62.2 642.37 45.14 620.51 37.79 615.82 44.83 579.79 40.51 594.85 81.96 631.85 78.54 635.65 81.72 685.33 62.2"/>
        </g>
      </g>
      <g>
        <text class="cls-1" transform="translate(202.83 85.02)"><tspan x="0" y="0">RUNNING</tspan></text>
        <g>
          <path d="m192.57,90.52h-4.06c-.13-.67-.32-1.15-.59-1.41-.43-.43-1.17-.66-2.2-.66s-1.71.17-2.1.5c-.29.25-.45.6-.45,1.04,0,.61.85,1.11,2.55,1.48,1.93.42,3.32.78,4.17,1.08.22.08.42.15.56.22,1.72.81,2.57,2.04,2.57,3.69,0,2.01-.84,3.48-2.5,4.41-.21.11-.41.21-.63.31-1.08.46-2.34.7-3.75.7-2.11,0-3.82-.38-5.12-1.12-.82-.48-1.43-1.07-1.84-1.79-.41-.72-.61-1.56-.61-2.53h4.25c0,.73.27,1.3.78,1.69.52.41,1.4.62,2.64.62.94,0,1.64-.2,2.1-.59.36-.31.53-.64.53-1.04,0-.66-.84-1.17-2.5-1.54-2.49-.53-4.06-.97-4.7-1.27-1.71-.8-2.55-2.03-2.55-3.74,0-1.37.43-2.53,1.33-3.48,1.12-1.19,2.8-1.78,5.02-1.78,1.83,0,3.3.27,4.41.78.1.04.18.08.27.14.8.43,1.4,1.01,1.8,1.72.4.71.6,1.57.6,2.56Z"/>
          <path d="m190.4,80.62c0-.08-.01-.15-.06-.21-.04-.07-.1-.11-.18-.14-.06-.02-.14-.03-.27-.04h-.64v.78h.64c.18-.01.31-.04.38-.11.08-.07.13-.17.13-.28Zm.34-.42c.08.11.13.24.13.38,0,.2-.07.36-.21.5-.14.14-.32.23-.54.24.1.04.17.08.22.14l.39.52.31.52h-.5l-.24-.42c-.15-.26-.28-.46-.39-.56-.01-.01-.03-.03-.06-.04l-.33-.1h-.25v1.12h-.42v-2.63h.91c.06,0,.11.01.15.01.22,0,.39.03.5.07.14.04.25.13.34.25Z"/>
          <path d="m191.93,81.15c0-.36-.08-.7-.27-1.02-.18-.32-.43-.57-.76-.76-.32-.17-.66-.27-.99-.27h-.01c-.34,0-.67.1-.99.27-.32.18-.57.43-.76.76-.18.32-.28.66-.28,1.02s.1.68.28,1.01c.17.31.42.56.74.74.32.18.66.27,1.01.27h.01c.35,0,.69-.08,1.01-.27.32-.18.57-.43.74-.74.18-.32.27-.66.27-1.01Zm.41,0c0,.41-.1.81-.32,1.2-.21.39-.5.69-.89.89-.39.23-.78.32-1.2.32h-.01c-.42,0-.81-.1-1.2-.32-.39-.21-.69-.5-.9-.89-.22-.39-.32-.8-.32-1.2,0-.43.1-.84.32-1.23.22-.39.52-.68.91-.89.39-.21.78-.31,1.19-.32h.01c.41,0,.8.11,1.19.32.39.21.7.5.91.89.22.39.32.8.32,1.23Z"/>
          <polygon points="168.53 61.38 180.02 80.52 168.53 80.52 161.56 80.52 150.59 62.23 142.28 48.4 150.59 43.4 155.83 40.25 168.53 61.38"/>
          <path d="m176.87,93.81v7.85h-3.82v-.87c-1.29.84-2.83,1.33-4.48,1.33h-.04c-4.56-.03-8.27-3.75-8.27-8.31s3.71-8.28,8.27-8.31h.04c1.65,0,3.19.49,4.48,1.33v-.91h3.82v7.89Zm-3.82.87v-1.73c-.41-2.1-2.27-3.69-4.48-3.69h-.04c-2.5.02-4.53,2.06-4.53,4.56s2.03,4.55,4.53,4.58h.04c2.21,0,4.07-1.61,4.48-3.71Z"/>
          <path d="m158.93,93.81v7.85h-3.82v-.87c-1.3.84-2.83,1.33-4.48,1.33h-.04c-4.56-.03-8.27-3.75-8.27-8.31s3.71-8.28,8.27-8.31h.04c1.65,0,3.18.49,4.48,1.33v-6.31h3.82v13.29Zm-3.82.87v-1.73c-.41-2.1-2.27-3.69-4.48-3.69h-.04c-2.5.02-4.53,2.06-4.53,4.56s2.03,4.55,4.53,4.58h.04c2.21,0,4.07-1.61,4.48-3.71Z"/>
          <polygon points="150.59 72.99 155.1 80.52 150.59 80.52 136.66 80.52 126.42 63.48 125.97 62.74 126.42 62.47 139.53 54.58 150.59 72.99"/>
          <rect x="136.67" y="85.5" width="4.16" height="16.16"/>
          <rect x="136.67" y="80.6" width="4.16" height="3.65"/>
          <path d="m134.77,93.81v7.85h-3.82v-.87c-1.3.84-2.84,1.33-4.49,1.33h-.04c-4.56-.03-8.27-3.75-8.27-8.31s3.71-8.28,8.27-8.31h.04c1.65,0,3.19.49,4.49,1.33v-6.31h3.82v13.29Zm-3.82.87v-1.73c-.41-2.1-2.27-3.69-4.49-3.69h-.04c-2.5.02-4.53,2.06-4.53,4.56s2.03,4.55,4.53,4.58h.04c2.23,0,4.09-1.61,4.49-3.71Z"/>
          <polygon points="126.42 74.22 130.19 80.52 126.42 80.52 111.74 80.52 109.67 77.06 123.23 68.92 126.42 74.22"/>
          <path d="m116.65,93.81v7.85h-3.82v-.87c-1.3.84-2.84,1.33-4.49,1.33h-.04c-4.55-.03-8.25-3.75-8.25-8.31s3.71-8.28,8.25-8.31h.04c1.65,0,3.19.49,4.49,1.33v-.91h3.82v7.89Zm-3.82.87v-1.73c-.41-2.1-2.27-3.69-4.49-3.69h-.04c-2.49.02-4.52,2.06-4.52,4.56s2.03,4.55,4.52,4.58h.04c2.22,0,4.09-1.61,4.49-3.71Z"/>
        </g>
      </g>
    </g>
  </g>
</svg>