<?xml version="1.0" encoding="UTF-8"?>
<svg id="Layer_2" data-name="Layer 2" xmlns="http://www.w3.org/2000/svg" viewBox="0 0 890.24 1873">
  <defs>
    <style>
      .cls-1 {
        fill: #fff;
      }

      .cls-2 {
        fill: aqua;
      }

      .cls-3 {
        fill: #ff1d25;
      }

      .cls-4 {
        fill: #b3b3b3;
      }

      .cls-5 {
        fill: #ed1c24;
      }

      .cls-6 {
        fill: #ff0;
      }
    </style>
  </defs>
  <g id="Layer_2-2" data-name="Layer 2">
    <g>
      <polygon class="cls-3" points="788 1772 0 1873 0 34 717 79 788 1772" />
      <polygon class="cls-4" points="815 1738 27 1839 27 0 744 45 815 1738" />
      <g>
        <polygon class="cls-2"
          points="825 137.96 521.3 57.62 367.85 25.75 341.95 77.08 95.37 77.08 230.52 344.57 477.43 291.54 505.62 309.92 825 137.96" />
        <path class="cls-5"
          d="m191.02,417.38L26.68,142.97l68.59-76.32,147.21,157.88c123.01-20.07,431.45-70.68,444.22-74.17l2.51-.89,72.88,32.22L191.02,417.38ZM44.1,144.65l152.76,255.08,529.4-218.49-38.09-16.84c-37.07,7.67-376.75,63.14-447.14,74.62l-3.71.61L95.46,87.51l-51.36,57.15Z" />
        <polygon class="cls-6"
          points="520.87 248.69 245.69 268.41 165.37 208.44 40.65 313.36 277.17 406.74 671.48 227.94 520.87 248.69" />
        <g>
          <path class="cls-1"
            d="m185.89,139.51c0-12.68.52-32.34,1.42-43.86h-.52c-4.14,17.85-7.76,39.59-14.75,68.57h-30.01c-5.56-29.5-7.76-49.68-11.64-69.09h-.39c.39,10.61,1.68,28.59,1.68,44.38v24.71h-35.32v-91.08h56.28c1.16,6.99,4.92,30.01,7.24,49.03h.26c2.98-18.11,7.37-39.46,9.44-49.03h55.63v91.08h-39.33v-24.71Z" />
          <path class="cls-5"
            d="m226.34,165.35h-41.58v-25.84c0-9.09.26-21.94.76-32.82-.86,4.11-1.74,8.45-2.68,13.12-2.6,12.87-5.55,27.46-9.7,44.67l-.21.86h-31.84l-.17-.92c-2.87-15.23-4.86-28.08-6.62-39.41-.86-5.56-1.66-10.74-2.49-15.72.47,9.25,1,20.21,1,30.21v25.84h-37.57v-93.33h58.36l.16.94c.7,4.18,3.97,24.02,6.4,42.43,3.46-19.82,7.8-40.02,8.33-42.48l.19-.89h57.67v93.33Zm-39.33-2.25h37.08v-88.83h-53.59c-1.13,5.28-5.94,27.97-9.24,48.09l-.16.94h-2.21l-.12-.99c-2.31-18.84-6.02-41.65-7.08-48.04h-54.2v88.83h33.07v-23.58c0-10.9-.63-23-1.13-32.72-.22-4.29-.43-8.34-.55-11.61l-.04-1.17h2.48l.18.91c1.88,9.42,3.35,18.85,5.04,29.76,1.72,11.09,3.66,23.63,6.44,38.42h28.19c4.03-16.8,6.92-31.09,9.48-43.72,1.81-8.96,3.38-16.7,5.06-23.97l.2-.87h2.63l-.1,1.21c-.92,11.72-1.42,31.3-1.42,43.77v23.58Z" />
        </g>
        <g>
          <path
            d="m359.54,272.68c-.87-.82-1.59-1.56-2.87-1.54-.38,0-.79-.25-1.16-.45-1.55-.84-2.86-1.97-3.71-3.52-.29-.53-.49-1.3-.32-1.83.47-1.46,1.16-2.85,1.78-4.33-.7-.51-1.42-1.11-2.19-1.6-3.82-2.44-7.66-4.85-11.5-7.27-.71-.45-1.44-.88-2.13-1.36-1.84-1.3-3.7-2.58-5.47-3.96-.81-.63-1.33-1.65-2.16-2.22-1.87-1.28-4.01-2.06-6.13-2.91-3.44-1.37-7.01-2.37-10.66-2.96-.95-.15-1.88-.39-2.82-.6-1.34-.3-2.87-.29-3.98-.98-3.17-1.97-6.49-3.78-9.02-6.63-.45-.51-.79-1.12-1.13-1.71-.53-.91-1.03-1.84-1.52-2.77-.28-.54-.51-1.1-.73-1.66-.21-.52-.31-1.09-.56-1.59-1.18-2.41-2.44-4.79-3.58-7.22-1.32-2.85-2.43-5.8-3.83-8.6-1.11-2.23-2.64-4.25-3.78-6.47-.72-1.4-1.41-2.96-1.53-4.5-.19-2.32-1.53-4.04-2.39-6.01-.27-.61-.56-1.38-.41-1.97,1.08-4.19.03-8.35-.03-12.53,0-.22-.23-.43-.32-.66-.18-.47-.39-.93-.5-1.42-.6-2.57-2.01-4.67-3.81-6.52-1.7-1.75-3.52-3.39-5.21-5.14,0,0,0,0,0,0-6.54-3.17-5.45-15.62-8.65-20.42-3.2-4.8-2.31-32.38-2.31-32.38,0,0-.49-4.8,1.43-3.87s15.67-.53,16.87-.13c0,0,.03.06.09.17.4-.03.81-.08,1.18,0,3.04.68,6.06,1.42,9.09,2.1,1.85.41,3.31,1.12,3.63,3.28.4,2.78.94,5.54,1.42,8.31-.14.02-.29.05-.43.07.21,1.28.49,2.55.61,3.84.08.82-.1,1.65-.12,2.48-.03,1.7.09,3.41-.06,5.09-.1,1.2-.45,2.39-.83,3.54,1.4,3.71-1.83,13.09-1.83,13.09l-7.91,1.83-2.81,6.68h0c.15.61.11,1.44.42,1.6,1.59.84.91,1.59.08,2.43-.15.15-.2.41-.31.67,2.57-.29,5.34-5.88,4.64-9.39-.47.58-.86.98-1.15,1.43-.5.78-.91,1.62-1.44,2.38-.16.23-.63.25-.95.36,0-.31-.12-.67,0-.91.56-1.09,1.1-2.2,1.81-3.19.43-.6,1.11-1.12,1.78-1.44,1.55-.74,3.17-1.33,4.77-1.99.36-.15.72-.3,1.08-.45.06.1.11.2.17.31-.87.56-1.77,1.07-2.58,1.69-.32.24-.44.74-.66,1.12.46.05.98.27,1.36.12.77-.32,1.42-.93,2.19-1.25.43-.18,1.11-.16,1.49.07.3.18.46.83.43,1.26-.06.83-.27,1.66-.45,2.48-.15.69-.33,1.38-.53,2.22.63-.23,1-.36,1.37-.5.49,1.25.34,1.63-.76,1.64-.93,0-1.43.44-1.93,1.16-.34.51-.97.82-1.47,1.22-.31-.45-.6-.92-.94-1.35-.27-.34-.57-.79-.94-.88-.24-.06-.7.37-.92.68-.94,1.29-1.06,2.78-1.01,4.34.02.7-.26,1.43-.46,2.13-.15.56-.4,1.1-.57,1.65-.25.84-.53,1.67-.69,2.53-.13.71-.11,1.44-.16,2.16.15.02.31.04.46.07.13-.29.31-.56.4-.86.51-1.87,1-3.75,1.5-5.62.23-.88.56-1.57,1.64-.54.38-1.06.73-2.01,1.07-2.96l.57.13c-.06,1.14-.01,2.3-.21,3.42-.3,1.66-.78,1.8-2.2.79-.37,1.28-.72,2.52-1.09,3.8.94-.57,1.73-1.05,2.52-1.52.16.11.18.12.34.24-.32,1.49-.31,3.08-1.45,4.31-.5.55-.98.98-.4,1.85.16.24-.33,1.03-.68,1.42-.19.21-.73.11-1.11.15,0-.47-.04-.94.03-1.4.11-.75.28-1.49.43-2.24-.66.95-1.07,1.95-1.37,2.98-.25.86.4,1.97,1.17,2.1,1.01.17,1.86-.24,2.13-1.18.93-3.19,1.72-6.42,2.62-9.61.12-.42.64-.72.97-1.07.14.47.46.97.39,1.41-.42,2.49-.95,4.97-1.42,7.46-.06.3-.05.61-.08.91.14.03.29.05.43.08.22-1.14.49-2.26.65-3.41.27-1.93.71-2.33,2.65-2.1.16-1.21.27-2.42.5-3.62.07-.37.47-.67.72-1.01.33.29.72.53.96.88.17.25.12.65.17.99.19,1.1.38,2.21.56,3.26.82-.05,1.46-.09,2.1-.12-.29-.32-.67-.42-1.04-.56-.21-.08-.56-.23-.56-.36,0-.25.11-.61.31-.74.28-.2.67-.25.95-.34.07-.57.35-1.2.16-1.61-.84-1.83.58-3.38.55-5.14-.02-1.61.9-3.22,1.03-4.86.19-2.39-.02-4.81.05-7.22.06-2.38.35-2.55,2.65-2.05,1.02.22,2.05.46,3.09.48.43,0,1.22-.51,1.24-.82.03-.57-.3-1.24-.66-1.73-.24-.32-.8-.44-1.23-.59-.8-.26-1.62-.47-2.43-.71-.88-.27-1.12-.79-.66-1.63.24-.43.46-.9.56-1.38.33-1.56.61-3.13.91-4.7.62-3.21,1.31-6.4,1.82-9.63.3-1.91.26-3.86.43-5.79.45-4.91.94-9.82,1.39-14.73.15-1.58-.62-2.91-1.98-3.6-.87,1.32-2.84,1.63-4.08.61-.17-.14-.34-.42-.32-.62.15-1.64-1.35-1.84-2.51-2.33-1.14-.48-2.31-.86-3.48-1.25-2.14-.71-4.22-1.82-6.41-2.15-3.84-.58-7.62-1.24-11.23-2.69-.86-.34-1.77-.64-2.5-1.17-1.46-1.06-3.08-1.59-4.82-1.66-1.91-.08-3.78-.23-5.51-1.14-.25-.13-.58-.27-.84-.22-1.84.32-3.45-.62-5.17-.84-2.15-.28-4.59-1.4-6.46.88-.12.15-.37.2-.54.31-.76.49-1.56.93-2.25,1.5-.62.51-1.12.41-1.21-.28-.2-1.58-.49-3.23.59-4.64,2.55-3.35,6.06-4.95,10.13-5.54.49-.07,1-.27,1.42-.54.43-.28.75-1.02,1.13-1.02,2.08-.04,3.14-1.21,3.97-2.96.37-.79,1.27-1.33,1.89-2.01.92-1.02.72-2.02-.2-2.9s-2.01-1.87-2.34-3.01c-.34-1.16-.92-1.49-1.85-1.67-1.57-.31-1.75-.66-.86-2.07.45-.71.3-1.28-.37-1.56-.45-.19-1.05-.03-1.58-.04-.87-.02-1.74-.06-2.6-.09l-.23-.47c.52-1.08,1.07-2.14,1.56-3.24.61-1.38,1.51-2.74,1.66-4.17.63-5.96.4-10.37-3.84-14.24-.38-.35-.77-.69-1.12-1.07-1.03-1.11-4.36-2.35-5.84-2.8-.26-.08-.52-.16-.78-.25-5.18-1.75-9.54-1.76-14.88-.13-1.61.49-1.93,1.64-.7,2.81.42.4.98.64,1.48.95.32.2.65.41.92.59-1.13,1.34-2.16,2.56-3.23,3.83.51.86.92,1.99.51,3.31-.5,1.61-1.96,1.39-3.26,1.8,1.69,1.31,3.43,2.44,5.17,3.57.14.09.34.14.42.27.19.3.52.69.44.95-.09.34-.48.77-.81.83-.65.13-1.36.14-2.01.02-2.1-.39-3.61.45-5.05,1.91-1.18,1.19-1.67,2.6-2.06,4.11-.24.91-.69,1.24-1.67.91-.85-.28-1.78-.33-2.67-.48l-.26.46c.35.32.66.79,1.07.92.54.18,1.19.02,1.75.15.44.1,1.05.34,1.19.68.82,1.94-.09,4.06-2.03,4.89-.49.21-1.04.28-1.64.43.52,1.91.89,2.32,2.66,2.53,1.17.14,2.35.11,3.53.12,2.13.03,3.31.77,3.97,2.68,1.64,4.72,2.89,9.52,2.75,14.56-.01.5-.46,1.04-.83,1.46-.2.23-.66.22-1,.33.02-.38-.06-.8.08-1.13.22-.55.58-1.05.89-1.57-.62.21-.96.56-1.33.88-3.26,2.76-6.02,5.89-7.57,9.96-.72,1.91-2.04,3.63-1.85,5.84.03.29-.17.69-.39.91-1.07,1.08-2.17,2.11-3.27,3.15-1.11,1.06-2.42,1.98-3.31,3.2-1.18,1.63-2.01,3.51-3.03,5.25-.28.47-.72.84-1.09,1.26-.41-.39-.91-.72-1.2-1.18-1.59-2.51-2.39-5.28-2.75-8.21-.44-3.51-.95-7.01-1.33-10.53-.07-.67.07-1.54.46-2.05,1.56-2.01,1.76-4.44,2.29-6.76.25-1.1,1.16-2.44-.43-3.37-.05-.03-.05-.16-.08-.23-.68-1.8-1.32-3.63-2.08-5.39-.19-.44-.73-.94-1.18-1.02-1.01-.18-1.47-.71-1.83-1.64-.89-2.32-1.9-4.59-2.86-6.88-.52-1.22-1.62-.91-2.53-.84-.48.04-1.28.49-1.32.84-.13,1.02-.97,1.8-1.06,2.6-.24,2.07-.79,3.93-1.94,5.64-.11.16-.12.41-.13.61-.35,4.73-.67,9.46,1.38,13.93.65,1.41,1.44,2.75,2.15,4.13,1.4,2.76,1.04,5.74,1.15,8.68.17,4.46.6,8.9.89,13.36.04.65-.05,1.32-.09,2.06.13.19.5.52.58.92.26,1.23.42,2.48.61,3.73.19,1.29.23,2.63.6,3.86.32,1.06,1.08,1.98,1.56,3,.82,1.72,1.51,3.5,2.39,5.19.3.57.91,1.19,1.5,1.37,2.11.62,4.23.69,6.28-.36,2.25-1.15,4.03-2.84,5.65-4.73,1.13-1.31,2.24-2.64,3.43-3.89.31-.32.92-.46,1.4-.49,1.13-.06,1.6.58,1.69,1.7.14,1.84.13,3.76.67,5.49.53,1.68.44,3.44,1.24,5.12.99,2.09.73,4.59,1.51,6.84.51,1.47.44,3.14.58,4.73.06.67-.14,1.38,0,2.03.38,1.86.89,3.7,1.32,5.56.15.67.21,1.37.3,2.05.92.89,1.72,1.97,2.51,3.05.02.03.03.09.02.13-.42,1.62.59,2.77,1.33,4.01.17.28.26.6.51,1.19-3.35,2.46-6.68,4.94-10.05,7.36-2.7,1.94-5.5,3.75-8.16,5.73-2.35,1.75-4.6,3.64-6.86,5.52-1.46,1.21-2.92,2.43-4.24,3.79-1.63,1.69-3.11,3.53-4.66,5.3-2.02,2.3-4.06,4.58-6.05,6.91-.58.68-1.01,1.5-1.5,2.26.69.04,1.16-.2,1.66-.35.45-.14.93-.17,1.4-.25.05.48.21.98.13,1.44-.38,2.07-1.68,3.52-3.33,4.73-.97.72-1.89,1.53-2.74,2.4-.23.24-.27,1.13-.14,1.2.86.44,1.78.78,2.71,1.04.52.14,1.46-.12,1.59.12.29.56.42,1.39.22,1.98-.8,2.27-.22,4.31.82,6.3.95,1.81,1.99,3.58,2.85,5.43.82,1.75,1.38,3.62,2.22,5.36.52,1.07,1.2,2.18,2.1,2.92,2.03,1.69,3.01,3.84,3.1,6.35.03.78-.53,1.91-1.17,2.3-.54.32-1.62-.12-2.4-.38-.58-.19-1.05-.73-1.63-.95-.93-.36-1.81-.44-2.59.54-2.68,3.38-3.55,7.31-4.01,11.49-.36,3.33-1.13,6.62-1.79,9.92-.61,3.04-1.71,5.99-1.38,9.2.23,2.18-1.48,3.39-3.54,2.71-.61-.2-1.23-.42-1.78-.61-.23,1.83-.04,3.68-.76,5.04-.72,1.34-2.37,2.19-3.46,3.12-1.53-.55-2.88-1.44-4.2-1.4-1.41.04-2.8.96-4.2,1.5.02.1.05.2.07.3,1.17-.21,2.42-.24,3.48-.71.7-.31,1.09-.38,1.67.06,1.42,1.06,3.14,1.27,4.79,1.12,1.91-.18,2.48-.2,3.34,1.51,1.03,2.03,2.76,3.68,3.19,6.05.08.44.88.95,1.42,1.07,1.02.21,2.1.29,3.13.17,1.53-.17,3.03-.55,4.57-.84-.1-.64-.23-1.29-.31-1.95-.19-1.64-.31-3.29-.53-4.92-.13-.95.49-2.7,1.11-3.07.2-1.47.11-2.95.63-4.17,1.2-2.81,1.91-5.72,2.52-8.69.26-1.29.87-2.5,1.41-4.03-.5-.9.15-3.09,1.2-3.79.08-.74.06-1.25.2-1.72.2-.67.6-1.28.78-1.95.45-1.67.82-3.36,1.23-5.04.68-2.8,1.65-5.56,1.98-8.4.33-2.8,0-5.68.02-8.53,0-1.25.25-2.51.16-3.75-.13-1.73-.52-3.45-.69-5.18-.09-.94.26-1.95.04-2.83-.46-1.87-.26-3.24,1.82-3.83.22-.06.39-.31.58-.47.7-.62,1.36-1.3,2.12-1.85.64-.46,1.39-.79,2.1-1.15,2.11-1.06,4.15-2.29,6.34-3.13,2.67-1.01,5.49-1.61,8.2-2.55,1.58-.55,3.1-1.33,4.57-2.15,1.35-.75,2.94-.89,4.18-1.98.82-.72,2.05-.94,3.02-1.51,2.86-1.68,5.68-3.43,8.53-5.14.69-.41,1.3-.31,1.62.52.21.55.32,1.16.64,1.64,1.41,2.08,1.89,4.62,3.49,6.64,1.85,2.35,3.33,5,5.14,7.39,1.77,2.34,3.91,4.4,5.6,6.8,1.56,2.22,3.25,4.16,5.39,5.86,2.95,2.35,5.54,5.17,8.18,7.86,1.49,1.52,2.82,3.17,4.1,4.86,1.77,2.33,4.13,3.54,6.89,4.13,2.58.55,5.16,1.07,7.74,1.59,4.58.93,8.71,3.01,12.87,5.03,1.78.87,3.49,1.91,5.34,2.6,3.3,1.22,6.32,3.08,9.75,3.99,1.71.45,3.32,1.26,5,1.84,3.71,1.28,7.47,2.45,11.16,3.81,3.1,1.14,6.19,2.37,9.18,3.79,1.53.73,2.93,1.85,4.18,3.02.68.64,1.1,1.43,2.2,1.44.33,0,.73.38.97.68.58.73,1.12.57,1.22-.2.24-1.8,1.11-3.23,2.11-4.67.65-.95.93-1.92-.21-2.99Z" />
          <path class="cls-1"
            d="m374.83,265.98c.28,1.53.56,3.06.84,4.59-.15.05-.3.09-.45.14-.18-.52-.4-1.02-.52-1.55-.13-.56-.18-1.15-.24-1.73-.05-.49-.07-.99-.1-1.48.15.01.31.03.46.04Z" />
          <path class="cls-1" d="m375.63,283.4c-.48-.67-.83-1.16-1.33-1.86,1.51.17,1.7.43,1.33,1.86Z" />
          <path class="cls-1"
            d="m357.06,265.78c.72.46,1.17.5,1.55-.41.29-.68.88-.59,1.35-.17,1.38,1.22,2.18,2.73,2.16,4.73-2.07.17-3.66-.23-4.57-2.14-.2-.41-.75-.64-1.06-1.03-.2-.26-.26-.63-.39-.95.32-.02.73-.17.95-.03Z" />
          <path class="cls-1"
            d="m222.98,45.49c.61-.6,1.59-.84,2.62-.08-1.05.45-1.64,1-1.52,2.18.05.48-.55,1.03-1.03,1.51-.09-1.25-1.21-2.5-.07-3.61Z" />
          <path class="cls-1" d="m226.87,50.38c-.27,1.06-1.23,1.33-2.01,1.76-.5.27-.52.22-2.23-1.76h4.24Z" />
          <path class="cls-1"
            d="m220.67,56.27c.26.04.6.4.64.65.04.25-.19.65-.42.81-1.46,1.07-3.46.1-3.7-1.87,1.18.13,2.34.22,3.48.41Z" />
          <path class="cls-1"
            d="m195.49,302.03c-.47,1.8-.94,3.61-1.49,5.39-.79,2.54-2.74,3.81-5.35,3.43-.69-.1-1,.03-1.44.57-.77.94-1.94.7-2.77.19-1.67-1.04-3.21-2.28-4.8-3.45-.3-.22-.53-.62-.85-.73-1.63-.52-2.19-2.11-3.29-3.16-.29-.28-.55-.72-.89-.81-1.73-.49-3.48-.95-5.24-1.31-2.64-.55-5.25-1.13-7.51-2.73-.39-.28-.97-.29-1.41-.52-1.47-.75-2.91-1.54-4.23-2.53h3.64c-.29.65-.44.99-.59,1.31,1.01,1.05,3.17,1.13,4.08.15,1.59-1.69,5.71-2.38,7.97-1.25-1.27.49-2.45.94-3.63,1.39.03.15.06.3.09.45,1.48-.15,2.59,1.36,4.34.6.72-.31,1.88.4,2.84.64.88.23,1.78.42,2.65.7.66.21,1.31.48.9,1.44-.06.13.32.53.56.7,1.05.7,2.08,1.43,3.19,2,1.1.57,2.3.95,3.44,1.43.58.24,1.17.48,1.72.78,2.04,1.08,4.5.23,5.57-2.01-2.71-.62-5.41-1.22-8.09-1.88-.5-.12-1.16-.38-1.35-.76-.2-.42,0-1.1.19-1.59.07-.17.75-.31.99-.17,2.12,1.15,4.46,1.41,6.76,1.84,1.12.21,2.21.89,3.41.17.15-.54-.98-1.55.71-1.62-.04.47,0,.92-.12,1.34Z" />
          <path class="cls-1"
            d="m218.52,63.86c.47-.27.94-.54,1.41-.81.13.17.26.34.4.51-.39.32-.76.67-1.19.91-.07.04-.4-.4-.62-.62Z" />
          <path class="cls-1"
            d="m289.59,172.93c-.08-.5.07-1.04.12-1.57.2.03.41.07.61.1-.2,1.29-.29,2.63-.68,3.86-.12.39-1.04.71-1.6.72-.47.01-.95-.47-1.43-.73.06-.13.13-.26.19-.39.4.05.8.16,1.19.15.99-.04,1.74-1.16,1.58-2.15Z" />
          <path class="cls-1"
            d="m280.98,171.34c-.16.62-.22,1.3-.36,1.31-.47.06-.97-.12-1.45-.21.02-.12.03-.24.05-.36.48-.2.97-.41,1.77-.74Z" />
          <path class="cls-1"
            d="m371.14,293.78c-.33.69-.71,1.35-1.08,2.02-.57-.41-1.21-.75-1.71-1.24-.97-.96-1.92-1.96-2.78-3.03-.79-.98-1.29-2.24-2.2-3.06-1.89-1.7-3.29-4.13-6.32-4.3.09-.15.17-.31.26-.46.83.34,1.66.68,2.48,1.03.73.32,1.19.49,1.59-.6.29-.79,1.29-1.31,1.97-1.95.25.27.65.51.72.82.21.94.17,1.95.49,2.84.18.5.89.8,1.35,1.21.29.26.64.49.83.81.32.52.53,1.1.93,1.6-.38,1.84,0,2.31,2.09,2.21.94-.04,1.42.43,1.47,1.34.01.25.02.54-.08.75Z" />
          <path class="cls-1"
            d="m372.93,271.75c-.38-.39-.56-.96-.84-1.45.2-.11.54-.35.59-.31.39.37.67.85,1.07,1.19,1.64,1.39,1.18,3.42,1.57,5.18.14.65.02,1.36.02,2.04-.2.06-.4.13-.61.19-.55-1.16-1.1-2.32-1.63-3.46,1.15-1.4,1.07-2.1-.17-3.38Z" />
          <path class="cls-1"
            d="m376.58,304.57c-1.13.13-2.09.25-3.12.37.76-.82,1.4-1.66,2.21-2.29.39-.31,1.1-.21,1.67-.3.05.13.1.27.15.4-.33.66-.66,1.33-.9,1.82Z" />
          <path
            d="m248.68,81.29c-1.26.2-2.53.38-3.8.4-.33,0-.66-.56-1.04-.9,1.28-1.76,3.93-1.89,5.03-.35.12.17-.08.84-.19.85Z" />
          <path d="m248.94,77.89c.77-1.09,2.3-1.19,3.77-.2-1.38.07-2.52.13-3.77.2Z" />
          <path
            d="m248.69,71.94c.35-.56.6-1.25.66-1.91.06-.73.3-1,1-.91,1.17.16,2.43.16,2.58,1.8.02.22.23.51.42.6,2.12,1.03,1.22,3.04,1.65,4.48-1.88-.28-3.58-.49-5.27-.8-1.02-.19-1.61-2.35-1.04-3.27Z" />
          <path d="m243.35,53.71c0,.11,0,.23,0,.34-.76.04-1.53.09-2.29.13v-.48s2.29,0,2.29,0Z" />
          <path
            d="m238.04,59.04c.3-.21.81-.13,1.23-.15,1.03-.05,2.06-.1,3.09-.14.05.09.1.19.15.28-1.41.52-2.82,1.07-4.25,1.53-.26.08-.64-.25-.97-.39.24-.39.4-.89.75-1.13Z" />
          <path
            d="m232.37,86.91c.54-2.65,1.12-5.28,1.68-7.93.13-.61.16-1.24.33-1.84.25-.92.57-1.83,1.04-2.71,1.3,1.34.83,2.76.48,4.16-.08.32-.35.6-.39.92-.04.35,0,.77.17,1.05.08.13.59-.05.9-.05.58,0,1.29-.17,1.71.11.88.57,1.31.3,1.67-.5.85-1.94,2.2-3.41,4.18-4.15.92-.34,1.97-.37,2.96-.45.25-.02.53.31.8.47-.19.24-.33.56-.57.72-2.73,1.83-5.53,3.57-8.19,5.49-1.11.8-1.89,2.03-2.9,2.97-1.06.99-2.22,1.87-3.61,3.04-.14-.76-.28-1.05-.23-1.3Z" />
          <path
            d="m257.58,177.27c-2.66,1.38-5.26.76-7.86-.32-2.56-1.06-5.16-2.04-7.76-2.98-.48-.17-1.09.05-1.63-.01-1.66-.21-3.34-.36-4.96-.75-1.16-.27-1.58-1.49-1-2.55,1.5-2.73,3.65-4.47,6.94-4.43.78,0,1.56.11,2.04-.85.18-.37.94-.44,1.36-.91-1.41.42-2.83.83-4.31,1.27.28-1.99,1.86-3.38,3.86-4.09,4.23-1.5,8.04-.18,11.85,1.43.23.1.47.2.68.34.42.29.83.6,1.24.91-.4.27-.79.54-1.19.81-.91.6-1.76.4-2.72-.02-1.09-.47-2.29-.67-3.44-.98-.06.18-.13.37-.19.55.42.22.89.38,1.26.66.4.32.84.7,1.03,1.15.12.3-.06.9-.32,1.12-.22.19-.77.1-1.12-.02-1.66-.56-3.31-1.17-4.97-1.75-.26-.09-.57-.05-1.1-.09,1.22.41,2.24.67,3.16,1.11.43.21.68.79,1.01,1.21-.43.13-.87.25-1.3.37-.04.01-.11-.02-.12,0-.97,1.64-3.12.71-4.3,2.03-.68.75-.76,1.06.23,1.54,2.77,1.31,5.67,2.14,8.74,2.34,2.36.15,4.71.29,7.07.45.32.02.63.12,1.09.52-1.08.65-2.13,1.36-3.25,1.95Z" />
          <path
            d="m159.85,296.36c-.29.65-.44.99-.59,1.31,1.01,1.05,3.17,1.13,4.08.15,1.59-1.69,5.71-2.38,7.97-1.25-1.27.49-2.45.94-3.63,1.39.03.15.06.3.09.45,1.48-.15,2.59,1.36,4.34.6.72-.31,1.88.4,2.84.64.88.23,1.78.42,2.65.7.66.21,1.31.48.9,1.44-.06.13.32.53.56.7,1.05.7,2.08,1.43,3.19,2,1.1.57,2.3.95,3.44,1.43.58.24,1.17.48,1.72.78,2.04,1.08,4.5.23,5.57-2.01-2.71-.62-5.41-1.22-8.09-1.88-.5-.12-1.16-.38-1.35-.76-.2-.42,0-1.1.19-1.59.07-.17.75-.31.99-.17,2.12,1.15,4.46,1.41,6.76,1.84,1.12.21,2.21.89,3.41.17.15-.54-.98-1.55.71-1.62-.04.47,0,.92-.12,1.34-.47,1.8-.94,3.61-1.49,5.39-.79,2.54-2.74,3.81-5.35,3.43-.69-.1-1,.03-1.44.57-.77.94-1.94.7-2.77.19-1.67-1.04-3.21-2.28-4.8-3.45-.3-.22-.53-.62-.85-.73-1.63-.52-2.19-2.11-3.29-3.16-.29-.28-.55-.72-.89-.81-1.73-.49-3.48-.95-5.24-1.31-2.64-.55-5.25-1.13-7.51-2.73-.39-.28-.97-.29-1.41-.52-1.47-.75-2.91-1.54-4.23-2.53h3.64Z" />
          <path
            d="m187.27,308.31c-1.78-.16-2.91-.8-3.57-2.17-.1-.21-.49-.3-.77-.39-1.54-.5-2.78.17-4.29,1.09,1.75.52,3.24.91,4.69,1.41.49.17,1.12.5,1.29.92.41.98.83.91,1.46.27.29-.29.59-.57,1.19-1.13Z" />
          <path
            d="m172.08,301.58c-.06.16-.11.32-.17.48.83.33,1.65.67,2.48.99,1,.37,2.04.64,3,1.09.99.47,1.77.58,2.55,0-2.68-.84-4.97-2.62-7.86-2.55Z" />
          <path d="m163.73,299.84c1.27.76,2.46.31,3.8-.16-1.47-2.15-2.55.51-3.8.16Z" />
          <path
            d="m357.3,283.72c.83.34,1.66.68,2.48,1.03.73.32,1.19.49,1.59-.6.29-.79,1.29-1.31,1.97-1.95.25.27.65.51.72.82.21.94.17,1.95.49,2.84.18.5.89.8,1.35,1.21.29.26.64.49.83.81.32.52.53,1.1.93,1.6-.38,1.84,0,2.31,2.09,2.21.94-.04,1.42.43,1.47,1.34.01.25.02.54-.08.75-.33.69-.71,1.35-1.08,2.02-.57-.41-1.21-.75-1.71-1.24-.97-.96-1.92-1.96-2.78-3.03-.79-.98-1.29-2.24-2.2-3.06-1.89-1.7-3.29-4.13-6.32-4.3.09-.15.17-.31.26-.46Z" />
          <path
            d="m362.13,269.93c-2.07.17-3.66-.23-4.57-2.14-.2-.41-.75-.64-1.06-1.03-.2-.26-.26-.63-.39-.95.32-.02.73-.17.95-.03.72.46,1.17.5,1.55-.41.29-.68.88-.59,1.35-.17,1.38,1.22,2.18,2.73,2.16,4.73Z" />
          <path
            d="m374.74,278.59c-.55-1.16-1.1-2.32-1.63-3.46,1.15-1.4,1.07-2.1-.17-3.38-.38-.39-.56-.96-.84-1.45.2-.11.54-.35.59-.31.39.37.67.85,1.07,1.19,1.64,1.39,1.18,3.42,1.57,5.18.14.65.02,1.36.02,2.04-.2.06-.4.13-.61.19Z" />
          <path
            d="m217.19,55.87c1.18.13,2.34.22,3.48.41.26.04.6.4.64.65.04.25-.19.65-.42.81-1.46,1.07-3.46.1-3.7-1.87Z" />
          <path d="m222.63,50.38h4.24c-.27,1.06-1.23,1.33-2.01,1.76-.5.27-.52.22-2.23-1.76Z" />
          <path
            d="m225.61,45.41c-1.05.45-1.64,1-1.52,2.18.05.48-.55,1.03-1.03,1.51-.09-1.25-1.21-2.5-.07-3.61.61-.6,1.59-.84,2.62-.08Z" />
          <path
            d="m377.48,302.75c-.33.66-.66,1.33-.9,1.82-1.13.13-2.09.25-3.12.37.76-.82,1.4-1.66,2.21-2.29.39-.31,1.1-.21,1.67-.3.05.13.1.27.15.4Z" />
          <path
            d="m290.32,171.47c-.2,1.29-.29,2.63-.68,3.86-.12.39-1.04.7-1.6.72-.47.01-.95-.47-1.43-.73.06-.13.13-.26.19-.39.4.05.8.16,1.19.15.99-.04,1.74-1.16,1.58-2.15-.08-.5.07-1.04.12-1.57.2.03.41.07.61.1Z" />
          <path
            d="m374.83,265.98c.28,1.53.56,3.06.84,4.59l-.45.14c-.18-.52-.4-1.02-.52-1.55-.13-.56-.18-1.15-.24-1.73-.05-.49-.07-.99-.1-1.48.15.01.31.03.46.04Z" />
          <path
            d="m220.33,63.56c-.39.32-.76.67-1.19.91-.07.04-.4-.4-.62-.62.47-.27.94-.54,1.41-.81.13.17.26.34.4.51Z" />
          <path
            d="m279.21,172.08c.48-.2.97-.41,1.77-.74-.16.62-.22,1.29-.36,1.31-.47.06-.97-.12-1.45-.21.02-.12.03-.24.05-.36Z" />
          <path d="m374.31,281.55c1.51.17,1.7.43,1.33,1.86-.48-.67-.83-1.16-1.33-1.86Z" />
          <path class="cls-1"
            d="m250.49,164.68c.42.22.89.38,1.26.66.4.32.84.7,1.03,1.15.12.3-.06.9-.32,1.12-.22.19-.77.1-1.12-.02-1.66-.56-3.31-1.17-4.97-1.75-.26-.09-.57-.05-1.1-.09,1.22.41,2.24.67,3.16,1.11.43.21.68.79,1.01,1.21-.43.13-.87.25-1.3.37-.04.01-.11-.02-.12,0-.97,1.64-3.12.71-4.3,2.03-.68.75-.76,1.06.23,1.54,2.77,1.31,5.67,2.14,8.74,2.34,2.36.15,4.71.29,7.07.45.32.02.63.12,1.09.52-1.08.65-2.13,1.36-3.25,1.95-2.66,1.38-5.26.76-7.86-.32-2.56-1.06-5.16-2.04-7.76-2.98-.48-.17-1.09.05-1.63-.01-1.66-.21-3.34-.36-4.96-.75-1.16-.27-1.58-1.49-1-2.55,1.5-2.73,3.65-4.47,6.94-4.43.78,0,1.56.11,2.04-.85.18-.37.94-.44,1.36-.91-1.41.42-2.83.83-4.31,1.27.28-1.99,1.86-3.38,3.86-4.09,4.23-1.5,8.04-.18,11.85,1.43.23.1.47.2.68.34.42.29.83.6,1.24.91-.4.27-.79.54-1.19.81-.91.6-1.76.4-2.72-.02-1.09-.47-2.29-.67-3.44-.98-.06.18-.13.37-.19.55Z" />
          <path class="cls-1"
            d="m232.6,88.21c-.14-.76-.28-1.05-.23-1.3.54-2.65,1.12-5.28,1.68-7.93.13-.61.16-1.24.33-1.84.25-.92.57-1.83,1.04-2.71,1.3,1.34.83,2.76.48,4.16-.08.32-.35.6-.39.92-.04.35,0,.77.17,1.05.08.13.59-.05.9-.05.58,0,1.29-.17,1.71.11.88.57,1.31.3,1.67-.5.85-1.94,2.2-3.41,4.18-4.15.92-.34,1.97-.37,2.96-.45.25-.02.53.31.8.47-.19.24-.33.56-.57.72-2.73,1.83-5.53,3.57-8.19,5.49-1.11.8-1.89,2.03-2.9,2.97-1.06.99-2.22,1.87-3.61,3.04Z" />
          <path class="cls-1"
            d="m254.99,76.01c-1.88-.28-3.58-.49-5.27-.8-1.02-.19-1.61-2.35-1.04-3.27.35-.56.6-1.25.66-1.91.06-.73.3-1,1-.91,1.17.16,2.43.16,2.58,1.8.02.22.23.51.42.6,2.12,1.03,1.22,3.04,1.65,4.48Z" />
          <path class="cls-1"
            d="m243.84,80.79c1.28-1.76,3.93-1.89,5.03-.35.12.17-.08.84-.19.85-1.26.2-2.53.38-3.8.4-.33,0-.66-.56-1.04-.9Z" />
          <path class="cls-1"
            d="m242.51,59.03c-1.41.52-2.82,1.07-4.25,1.53-.26.08-.64-.25-.97-.39.24-.39.4-.89.75-1.13.3-.21.81-.13,1.23-.15,1.03-.05,2.06-.1,3.09-.14.05.09.1.19.15.28Z" />
          <path class="cls-1" d="m248.94,77.89c.77-1.09,2.3-1.19,3.77-.2-1.38.07-2.52.13-3.77.2Z" />
          <path class="cls-1" d="m241.06,53.71h2.29v.34c-.76.04-1.53.09-2.29.13v-.48Z" />
          <path class="cls-1"
            d="m187.27,308.31c-.6.57-.9.84-1.19,1.13-.63.64-1.04.71-1.46-.27-.18-.42-.8-.75-1.29-.92-1.45-.5-2.94-.89-4.69-1.41,1.5-.92,2.75-1.59,4.29-1.09.28.09.67.18.77.39.66,1.37,1.79,2.01,3.57,2.17Z" />
          <path class="cls-1"
            d="m172.08,301.58c2.89-.07,5.19,1.72,7.86,2.55-.78.58-1.56.47-2.55,0-.96-.46-2-.72-3-1.09-.83-.31-1.65-.66-2.48-.99.06-.16.11-.32.17-.48Z" />
          <path class="cls-1" d="m163.73,299.84c1.25.36,2.33-2.31,3.8-.16-1.34.47-2.53.92-3.8.16Z" />
          <path d="m193.94,208.05s-7.59,7.59-7.59,10.79-2.4,67.55-2.4,67.55l-1.32-3.26s-2.28-69.49,8.11-74.68" />
        </g>
        <g>
          <path
            d="m275.56,230.28v51.1h-11.65v-109.43h19.12c16.44,0,24.53,7.09,24.53,25.18v5c0,14.86-5.23,20.95-11.14,23.04,6.94,2.58,10.17,7.8,10.17,22.44,0,9.35-.16,26.85,1.07,33.76h-11.35c-1.38-6.82-1.15-25.21-1.15-32.88,0-14.18-2-18.21-12.84-18.21h-6.78Zm0-9.89h7.15c10.4,0,13.12-6.02,13.12-17.71v-4.87c0-9.99-2.73-15.98-13.69-15.98h-6.58v38.56Z" />
          <path
            d="m331.67,171.95v85.05c0,9.04,3.17,15.19,11.38,15.19s11.23-5.81,11.23-15.1v-85.14h11.73v84.73c0,16.92-7.6,26.17-23.2,26.17s-22.79-8.5-22.79-25.9v-84.99h11.65Z" />
          <path
            d="m381.7,281.38v-109.43h13.89c5.9,20.26,21.12,77.62,22.91,86.56h.25c-.64-14.71-.82-30.11-.82-47.96v-38.6h10.98v109.43h-13.43c-5.82-20.54-21.51-80.77-23.58-89.48h-.16c.73,13.18,1.01,30.66,1.01,50.41v39.07h-11.05Z" />
          <path
            d="m445.09,281.38v-109.43h13.89c5.9,20.26,21.12,77.62,22.91,86.56h.25c-.64-14.71-.82-30.11-.82-47.96v-38.6h10.98v109.43h-13.43c-5.82-20.54-21.51-80.77-23.58-89.48h-.16c.73,13.18,1.01,30.66,1.01,50.41v39.07h-11.05Z" />
          <path
            d="m544.61,228.39h-24.54v42.28h27.87l-1.58,10.71h-37.93v-109.43h37.59v10.78h-25.94v34.95h24.54v10.71Z" />
          <path
            d="m568.79,230.28v51.1h-11.65v-109.43h19.12c16.44,0,24.53,7.09,24.53,25.18v5c0,14.86-5.23,20.95-11.14,23.04,6.94,2.58,10.17,7.8,10.17,22.44,0,9.35-.16,26.85,1.07,33.76h-11.35c-1.38-6.82-1.15-25.21-1.15-32.88,0-14.18-2-18.21-12.84-18.21h-6.78Zm0-9.89h7.15c10.4,0,13.12-6.02,13.12-17.71v-4.87c0-9.99-2.73-15.98-13.69-15.98h-6.58v38.56Z" />
        </g>
        <g>
          <path class="cls-1"
            d="m272.18,224.65v51.1h-11.65v-109.43h19.12c16.44,0,24.53,7.09,24.53,25.18v5c0,14.86-5.23,20.95-11.14,23.04,6.94,2.58,10.17,7.8,10.17,22.44,0,9.35-.16,26.85,1.07,33.76h-11.35c-1.38-6.82-1.15-25.21-1.15-32.88,0-14.18-2-18.21-12.84-18.21h-6.78Zm0-9.89h7.15c10.4,0,13.12-6.02,13.12-17.71v-4.87c0-9.99-2.73-15.98-13.69-15.98h-6.58v38.56Z" />
          <path class="cls-1"
            d="m328.3,166.32v85.05c0,9.04,3.17,15.19,11.38,15.19s11.23-5.81,11.23-15.1v-85.14h11.73v84.73c0,16.92-7.6,26.17-23.2,26.17s-22.79-8.5-22.79-25.9v-84.99h11.65Z" />
          <path class="cls-1"
            d="m378.32,275.75v-109.43h13.89c5.9,20.26,21.12,77.62,22.91,86.56h.25c-.64-14.71-.82-30.11-.82-47.96v-38.6h10.98v109.43h-13.43c-5.82-20.54-21.51-80.77-23.58-89.48h-.16c.73,13.18,1.01,30.66,1.01,50.41v39.07h-11.05Z" />
          <path class="cls-1"
            d="m441.71,275.75v-109.43h13.89c5.9,20.26,21.12,77.62,22.91,86.56h.25c-.64-14.71-.82-30.11-.82-47.96v-38.6h10.98v109.43h-13.43c-5.82-20.54-21.51-80.77-23.58-89.48h-.16c.73,13.18,1.01,30.66,1.01,50.41v39.07h-11.05Z" />
          <path class="cls-1"
            d="m541.23,222.76h-24.54v42.28h27.87l-1.58,10.71h-37.93v-109.43h37.59v10.78h-25.94v34.95h24.54v10.71Z" />
          <path class="cls-1"
            d="m565.41,224.65v51.1h-11.65v-109.43h19.12c16.44,0,24.53,7.09,24.53,25.18v5c0,14.86-5.23,20.95-11.14,23.04,6.94,2.58,10.17,7.8,10.17,22.44,0,9.35-.16,26.85,1.07,33.76h-11.35c-1.38-6.82-1.15-25.21-1.15-32.88,0-14.18-2-18.21-12.84-18.21h-6.78Zm0-9.89h7.15c10.4,0,13.12-6.02,13.12-17.71v-4.87c0-9.99-2.73-15.98-13.69-15.98h-6.58v38.56Z" />
        </g>
        <g>
          <g>
            <path class="cls-1"
              d="m346.1,130.73h-46.19v9.31h52.01l-4.66,24.45h-85.9v-91.08h87.07v24.58h-48.51v8.15h46.19v24.58Z" />
            <path class="cls-5"
              d="m347.26,165.62h-85.9c-.62,0-1.13-.5-1.13-1.13v-91.08c0-.62.5-1.13,1.13-1.13h87.07c.62,0,1.13.5,1.13,1.13v24.58c0,.62-.5,1.13-1.13,1.13h-47.39v5.9h45.06c.62,0,1.13.5,1.13,1.13v24.58c0,.62-.5,1.13-1.13,1.13h-45.06v7.06h50.88c.34,0,.65.15.87.41.21.26.3.6.24.93l-4.66,24.45c-.1.53-.57.92-1.11.92Zm-84.78-2.25h83.85l4.23-22.2h-50.65c-.62,0-1.13-.5-1.13-1.13v-9.31c0-.62.5-1.13,1.13-1.13h45.06v-22.33h-45.06c-.62,0-1.13-.5-1.13-1.13v-8.15c0-.62.5-1.13,1.13-1.13h47.39v-22.33h-84.82v88.83Z" />
          </g>
          <g>
            <path class="cls-1" d="m385.17,98h-27.43v-24.58h94.31v24.58h-27.17v66.5h-39.72v-66.5Z" />
            <path class="cls-5"
              d="m424.89,165.62h-39.72c-.62,0-1.13-.5-1.13-1.13v-65.37h-26.3c-.62,0-1.13-.5-1.13-1.13v-24.58c0-.62.5-1.13,1.13-1.13h94.31c.62,0,1.13.5,1.13,1.13v24.58c0,.62-.5,1.13-1.13,1.13h-26.04v65.37c0,.62-.5,1.13-1.13,1.13Zm-38.59-2.25h37.46v-65.37c0-.62.5-1.13,1.13-1.13h26.04v-22.33h-92.06v22.33h26.3c.62,0,1.13.5,1.13,1.13v65.37Z" />
          </g>
          <g>
            <path class="cls-1"
              d="m485.05,151.56l-3.23,12.94h-38.81l31.31-91.08h52.4l34.15,91.08h-42.43l-3.49-12.94h-29.89Zm22.51-24.58c-2.33-9.83-4.92-20.18-7.37-28.72h-1.03c-1.81,8.54-4.92,20.44-6.99,28.72h15.4Z" />
            <path class="cls-5"
              d="m560.86,165.62h-42.43c-.51,0-.95-.34-1.09-.83l-3.27-12.1h-28.14l-3.02,12.08c-.13.5-.58.85-1.09.85h-38.81c-.36,0-.71-.18-.92-.47-.21-.3-.27-.68-.15-1.02l31.31-91.08c.16-.45.58-.76,1.07-.76h52.4c.47,0,.89.29,1.05.73l34.15,91.08c.13.35.08.73-.13,1.04-.21.3-.56.48-.93.48Zm-41.57-2.25h39.95l-33.31-88.83h-50.81l-30.53,88.83h36.35l3.02-12.08c.13-.5.58-.85,1.09-.85h29.89c.51,0,.95.34,1.09.83l3.27,12.1Zm-11.73-35.27h-15.4c-.35,0-.67-.16-.89-.43s-.29-.63-.21-.97c.44-1.75.92-3.66,1.43-5.66,1.93-7.64,4.13-16.31,5.55-23.02.11-.52.57-.89,1.1-.89h1.03c.5,0,.94.33,1.08.81,2.15,7.45,4.63,17.13,7.39,28.77.08.33,0,.69-.21.96-.21.27-.54.43-.88.43Zm-13.95-2.25h12.53c-2.35-9.86-4.49-18.26-6.39-25.03-1.41,6.35-3.34,13.97-5.06,20.77-.37,1.48-.74,2.91-1.07,4.25Z" />
          </g>
        </g>
      </g>
      <g>
        <polyline class="cls-2" points="890.24 424.74 131.19 464.53 269.7 566.11 729 518.18" />
        <g>
          <path d="m257.82,511.62h25.28v3.66h-29.64v-51.19h4.36v47.53Z" />
          <path
            d="m326.94,492.46c0,4.71-.81,8.85-2.44,12.41s-3.96,6.3-6.98,8.23-6.52,2.88-10.48,2.88c-5.98,0-10.8-2.14-14.48-6.42s-5.52-10.05-5.52-17.31v-5.27c0-4.66.83-8.79,2.48-12.39s3.99-6.36,7.01-8.3,6.5-2.9,10.44-2.9,7.41.95,10.42,2.85,5.34,4.58,6.98,8.05,2.5,7.49,2.57,12.06v6.12Zm-4.32-5.55c0-6.16-1.39-10.99-4.18-14.48s-6.61-5.24-11.46-5.24-8.55,1.75-11.37,5.26-4.24,8.4-4.24,14.68v5.34c0,6.07,1.41,10.88,4.22,14.43s6.63,5.33,11.46,5.33,8.72-1.75,11.46-5.26,4.11-8.38,4.11-14.64v-5.41Z" />
          <path
            d="m374.79,509.19c-1.5,2.13-3.85,3.8-7.05,4.99s-6.78,1.79-10.74,1.79-7.57-.96-10.69-2.88-5.53-4.64-7.24-8.16-2.58-7.55-2.6-12.09v-6.47c0-7.1,1.79-12.71,5.38-16.82s8.4-6.17,14.45-6.17c5.27,0,9.52,1.34,12.73,4.03s5.12,6.38,5.73,11.09h-4.32c-.63-3.76-2.16-6.61-4.59-8.55s-5.6-2.91-9.51-2.91c-4.78,0-8.57,1.7-11.36,5.1-2.79,3.4-4.18,8.2-4.18,14.39v6.05c0,3.89.66,7.34,1.99,10.33,1.32,2.99,3.22,5.31,5.7,6.95,2.47,1.64,5.31,2.46,8.53,2.46,3.73,0,6.93-.59,9.6-1.76,1.73-.77,3.02-1.68,3.87-2.71v-13.22h-13.75v-3.66h18.07v18.21Z" />
          <path d="m392.33,515.27h-4.32v-51.19h4.32v51.19Z" />
          <path d="m444.32,515.27h-4.32l-29.43-43.8v43.8h-4.36v-51.19h4.36l29.46,43.84v-43.84h4.29v51.19Z" />
          <path d="m490.27,508.95l.28,1.09.32-1.09,16.1-44.86h4.75l-19.05,51.19h-4.15l-19.05-51.19h4.71l16.1,44.86Z" />
          <path d="m524.52,515.27h-4.32v-51.19h4.32v51.19Z" />
          <path
            d="m566.67,500.89h-23.24l-5.27,14.38h-4.54l19.37-51.19h4.11l19.37,51.19h-4.5l-5.31-14.38Zm-21.9-3.66h20.53l-10.27-27.88-10.27,27.88Z" />
        </g>
      </g>
    </g>
  </g>
</svg>