<?xml version="1.0" encoding="UTF-8"?>
<svg id="Layer_2" data-name="Layer 2" xmlns="http://www.w3.org/2000/svg" viewBox="0 0 722.28 139.59">
  <defs>
    <style>
      .cls-1 {
        fill: #ff0;
      }

      .cls-2 {
        fill-rule: evenodd;
      }
    </style>
  </defs>
  <g id="Layer_2-2" data-name="Layer 2">
    <g>
      <g>
        <rect class="cls-1" y="12.31" width="564.55" height="115.25"/>
        <g>
          <polygon points="536.8 17.19 563.17 139.59 722.28 103.41 669.25 18.87 531.75 0 536.8 17.19"/>
          <polygon class="cls-1" points="685.33 62.2 642.37 45.14 620.51 37.79 615.82 44.83 579.79 40.51 594.85 81.96 631.85 78.54 635.65 81.72 685.33 62.2"/>
        </g>
      </g>
      <path class="cls-2" d="m129.61,52.36c7.91,2.93,10.41,4.85,10.41,4.85-.33,6.84-6.28,12.92-15.67,17.11,9.38,4.2,15.34,10.28,15.67,17.11,0,0-2.5,1.92-10.41,4.85-6.95,2.57-12.19,3.14-12.19,3.14l.02-15.07c0-2.1-.62-4.03-2.19-6.21-5.9,2.23-11.48,3.68-17.58,3.68h-.01c-6.09,0-11.68-1.45-17.57-3.68-1.58,2.18-2.19,4.11-2.19,6.21l.03,15.07s-5.24-.57-12.19-3.14c-7.91-2.93-10.41-4.85-10.41-4.85.32-6.84,6.28-12.92,15.66-17.11-9.38-4.19-15.34-10.27-15.66-17.11,0,0,2.5-1.92,10.41-4.85,6.95-2.57,12.19-3.14,12.19-3.14l-.03,15.07c0,2.1.62,4.03,2.19,6.21,5.89-2.23,11.48-3.68,17.57-3.68h.01c6.1,0,11.68,1.45,17.58,3.68,1.58-2.18,2.19-4.12,2.19-6.21l-.02-15.07s5.24.57,12.19,3.14Zm-19.12,22.79c.46-.33.82-.59,1.14-.83-.32-.24-.68-.5-1.14-.83-2.91-2.07-7.14-3.5-12.64-3.5h-.17s0,0,0,0h-.18c-5.5,0-9.73,1.43-12.63,3.5-.46.33-.82.59-1.14.83.32.24.68.51,1.14.83,2.91,2.07,7.14,3.5,12.63,3.5h.36c5.5,0,9.73-1.42,12.64-3.5Zm354.75-19.65v36.66h8.97v-22.59l14.11,22.59h9.32v-36.66h-8.97v22.64l-14.22-22.64h-9.22Zm-40.49,23.57c0,9.66,4.74,14.07,15.34,14.07s15.49-4.36,15.49-14.07v-23.57h-9.22v22.95c0,4.31-1.94,6.59-6.27,6.59s-6.11-2.28-6.11-6.59v-22.95h-9.22v23.57Zm-28.73-7.79v-8.77h4.02c2.45,0,4.18.47,4.89,2.02.31.62.46,1.3.46,2.28s-.15,1.71-.46,2.34c-.71,1.51-2.34,2.13-4.89,2.13h-4.02Zm1.38,6.23l9.73,14.64h10.44l-10.44-14.95c3.31-.62,5.55-2.39,6.73-5.3.61-1.46.97-3.38.97-5.4s-.36-3.89-.97-5.35c-1.68-3.74-5.4-5.66-11.11-5.66h-15.95v36.66h9.22v-14.64h1.38Zm-39.98-1.14v15.78h9.22v-15.78l11.67-20.87h-9.99l-6.32,11.99-6.32-11.99h-9.99l11.72,20.87Zm-60.51-20.87v36.66h8.71v-22.27l9.43,22.27h4.02l9.43-22.27v22.27h8.71v-36.66h-10.65l-9.48,22.07-9.48-22.07h-10.7Zm-24.08,15.78h-3.87v-8.77h3.82c2.55,0,4.18.52,4.89,2.02.25.67.41,1.35.41,2.34,0,.93-.15,1.66-.41,2.34-.72,1.45-2.34,2.08-4.84,2.08Zm-13.09-15.78v36.66h9.22v-14.07h6.47c5.66,0,9.43-1.92,11.11-5.76.66-1.61,1.02-3.53,1.02-5.5,0-2.28-.36-4.21-1.02-5.81-1.68-3.84-5.45-5.5-11.11-5.5h-15.69Zm-22.55,22.69h-9.78l4.84-15.89h.1l4.84,15.89Zm2.14,7.06l2.09,6.91h9.58l-11.82-36.66h-13.76l-11.82,36.66h9.58l2.09-6.91h14.06Zm-74.2-29.75v36.66h8.71v-22.27l9.43,22.27h4.02l9.43-22.27v22.27h8.71v-36.66h-10.65l-9.48,22.07-9.48-22.07h-10.7Z"/>
    </g>
  </g>
</svg>