<?xml version="1.0" encoding="UTF-8"?>
<svg id="Layer_2" data-name="Layer 2" xmlns="http://www.w3.org/2000/svg" viewBox="0 0 722.28 139.59">
  <defs>
    <style>
      .cls-1 {
        font-family: Gotham-Black, Gotham;
        font-size: 38.01px;
        font-weight: 800;
      }

      .cls-2 {
        letter-spacing: -.02em;
      }

      .cls-3 {
        fill: #ff0;
      }
    </style>
  </defs>
  <g id="Layer_2-2" data-name="Layer 2">
    <g>
      <g>
        <rect class="cls-3" y="12.31" width="564.55" height="115.25"/>
        <g>
          <polygon points="536.8 17.19 563.17 139.59 722.28 103.41 669.25 18.87 531.75 0 536.8 17.19"/>
          <polygon class="cls-3" points="685.33 62.2 642.37 45.14 620.51 37.79 615.82 44.83 579.79 40.51 594.85 81.96 631.85 78.54 635.65 81.72 685.33 62.2"/>
        </g>
      </g>
      <g>
        <path d="m74.61,45.82c-13.23,15.54-25.71,36.21-14.69,45.73,10.68,9.22,24.03,3.76,33.14.12,9.1-3.64,109.73-47.34,109.73-47.34.97-.49.79-1.09-.42-.79-.49.12-109.54,29.68-109.54,29.68-13.84,3.88-29.62-4.58-18.21-27.4Z"/>
        <text class="cls-1" transform="translate(206.68 83.14)"><tspan x="0" y="0">+ RUN C</tspan><tspan class="cls-2" x="159.14" y="0">L</tspan><tspan x="181.84" y="0">UB</tspan></text>
      </g>
    </g>
  </g>
</svg>