<?xml version="1.0" encoding="UTF-8"?>
<svg id="Layer_2" data-name="Layer 2" xmlns="http://www.w3.org/2000/svg" viewBox="0 0 722.28 139.59">
  <defs>
    <style>
      .cls-1 {
        fill: #ff0;
      }
    </style>
  </defs>
  <g id="Layer_2-2" data-name="Layer 2">
    <g>
      <g>
        <rect class="cls-1" y="12.31" width="564.55" height="115.25"/>
        <polygon points="536.8 17.19 563.17 139.59 722.28 103.41 669.25 18.87 531.75 0 536.8 17.19"/>
      </g>
      <g>
        <path d="m204.53,85.23c0-2.09-.84-3.76-2.51-5.03s-4.2-2.26-7.58-2.97-5.99-1.54-7.86-2.46-3.25-2.06-4.15-3.39-1.35-2.95-1.35-4.85c0-3,1.25-5.48,3.76-7.44s5.72-2.94,9.63-2.94c4.24,0,7.65,1.05,10.21,3.15s3.85,4.83,3.85,8.21h-4.22c0-2.23-.93-4.08-2.79-5.55s-4.21-2.21-7.05-2.21-4.99.62-6.66,1.85-2.51,2.83-2.51,4.8.7,3.37,2.09,4.41,3.94,2,7.63,2.87,6.46,1.79,8.3,2.78,3.21,2.17,4.1,3.55,1.34,3.06,1.34,5.03c0,3.21-1.29,5.78-3.88,7.7s-5.97,2.88-10.14,2.88c-4.43,0-8.02-1.07-10.78-3.22s-4.13-4.86-4.13-8.14h4.22c.16,2.46,1.2,4.38,3.11,5.75s4.44,2.06,7.58,2.06c2.93,0,5.3-.64,7.1-1.93s2.71-2.92,2.71-4.89Z"/>
        <path d="m222.39,63.29c1.38-2.27,3.15-4.03,5.31-5.27s4.51-1.86,7.07-1.86c4.08,0,7.11,1.15,9.11,3.45s3,5.74,3.02,10.34v24.96h-4.18v-25c-.02-3.4-.74-5.93-2.16-7.59s-3.69-2.5-6.8-2.5c-2.6,0-4.9.81-6.91,2.44s-3.49,3.83-4.45,6.59v26.05h-4.18v-54h4.18v22.39Z"/>
        <path d="m281.74,94.9c-.42-1.2-.69-2.96-.81-5.31-1.48,1.92-3.36,3.4-5.64,4.45s-4.71,1.56-7.26,1.56c-3.66,0-6.62-1.02-8.88-3.06s-3.39-4.62-3.39-7.73c0-3.7,1.54-6.63,4.62-8.79s7.38-3.23,12.88-3.23h7.63v-4.32c0-2.72-.84-4.86-2.51-6.42s-4.12-2.34-7.33-2.34c-2.93,0-5.36.75-7.28,2.25s-2.88,3.3-2.88,5.41l-4.22-.04c0-3.02,1.41-5.64,4.22-7.86s6.27-3.32,10.37-3.32,7.59,1.06,10.04,3.18,3.71,5.08,3.78,8.88v18c0,3.68.39,6.43,1.16,8.26v.42h-4.5Zm-13.22-3.02c2.81,0,5.33-.68,7.54-2.04s3.83-3.18,4.83-5.45v-8.37h-7.52c-4.2.05-7.48.81-9.84,2.3s-3.55,3.53-3.55,6.13c0,2.13.79,3.9,2.37,5.31s3.64,2.11,6.17,2.11Z"/>
        <path d="m313.87,60.44c-.89-.16-1.84-.25-2.85-.25-2.62,0-4.85.73-6.66,2.2s-3.11,3.59-3.88,6.38v26.12h-4.18v-38.04h4.11l.07,6.05c2.23-4.5,5.8-6.75,10.72-6.75,1.17,0,2.1.15,2.78.46l-.11,3.83Z"/>
        <path d="m334.58,95.6c-3.23,0-6.16-.8-8.77-2.39s-4.65-3.81-6.1-6.66-2.18-6.04-2.18-9.58v-1.51c0-3.66.71-6.95,2.13-9.88s3.39-5.23,5.92-6.91,5.27-2.51,8.23-2.51c4.62,0,8.28,1.58,10.99,4.73s4.06,7.46,4.06,12.92v2.36h-27.14v.81c0,4.31,1.24,7.9,3.71,10.78s5.58,4.31,9.33,4.31c2.25,0,4.24-.41,5.96-1.23s3.29-2.13,4.69-3.94l2.64,2c-3.09,4.48-7.58,6.71-13.46,6.71Zm-.77-35.86c-3.16,0-5.83,1.16-8,3.48s-3.49,5.44-3.96,9.35h22.82v-.46c-.12-3.66-1.16-6.63-3.13-8.93s-4.55-3.45-7.73-3.45Z"/>
      </g>
      <path class="cls-1" d="m636.77,70.44c-4.67,0-8.68,2.78-10.48,6.77l-30.38-9.37c11.03-5.49,23.55-11.71,31.51-15.59,1.94,1.69,4.48,2.71,7.26,2.71,6.12,0,11.08-4.96,11.08-11.08s-4.96-11.08-11.08-11.08-11.08,4.96-11.08,11.08c0,.3.02.6.04.9-3.76,1.84-9.02,4.44-16.43,8.11-12.1,6-24.26,12.08-24.38,12.14l-9.33,4.66,52.46,16.17c1.6,4.42,5.84,7.58,10.82,7.58,6.35,0,11.5-5.15,11.5-11.5s-5.15-11.5-11.5-11.5Z"/>
    </g>
  </g>
</svg>