<?xml version="1.0" encoding="UTF-8"?>
<svg id="Layer_2" data-name="Layer 2" xmlns="http://www.w3.org/2000/svg" viewBox="0 0 722.28 139.59">
  <defs>
    <style>
      .cls-1 {
        fill: #ff0;
      }

      .cls-2 {
        fill-rule: evenodd;
      }
    </style>
  </defs>
  <g id="Layer_2-2" data-name="Layer 2">
    <g>
      <g>
        <rect class="cls-1" y="12.31" width="564.55" height="115.25"/>
        <g>
          <polygon points="536.8 17.19 563.17 139.59 722.28 103.41 669.25 18.87 531.75 0 536.8 17.19"/>
          <polygon class="cls-1" points="685.33 62.2 642.37 45.14 620.51 37.79 615.82 44.83 579.79 40.51 594.85 81.96 631.85 78.54 635.65 81.72 685.33 62.2"/>
        </g>
      </g>
      <path class="cls-2" d="m248.32,69.16h-8.33v-10.21h7.23c3.23,0,7.19.84,7.07,4.86-.11,3.61-2.31,5.36-5.97,5.36h0Zm22.47,22.94l-9.11-13.2c1.77-.94,2.4-1.2,4.05-2.55,3.49-2.86,5.29-5.95,6.05-10.44,1.13-6.66-.95-12.77-6.14-17.05-3.84-3.17-10.3-4.68-15.59-4.68h-27.65v52.79h17.6v-15.08c4.42,0,3.5-.41,4.9,1.7l8.38,12.67c.29.49.3.71,1.02.71h30.64l11.94-22.62,11.63,22.62h16.68l-28.31-56.09-26.08,51.22h0Zm-122.22-13.68c1.92.38,6.91,1.35,5.57,4.02-1.57,3.12-12.89.57-16.21-.92-4.28-2.07-4.27-2.07-6.5-3.72l-9.43,11.31c9.3,6.23,15.16,8.75,27.04,8.69,11.49-.06,22.41-4.33,23.16-16,1.05-16.16-13.51-16.45-24.84-19.55-1.79-.49-5-1.06-4.43-3.54.44-1.91,4.74-1.58,6.41-1.41,4.4.45,9.62,2.48,13.03,4.93l8.64-11.78c-7.87-5.44-14.7-7.57-24.28-7.31-10.88.29-21.09,4.65-21.86,17.03-.83,13.33,13.47,16.19,23.69,18.23h0Zm22.61-19.31h15.55v37.86h17.75v-37.86h15.55v-14.93h-48.86v14.93h0Zm164.96,41.01l28.44-55.93h-16.97l-11.31,22.47-11.47-22.47h-16.97l28.28,55.93h0Zm39.43-59.15l28.44,55.93h-16.97l-11.31-22.47-11.47,22.47h-16.97l28.28-55.93h0Z"/>
    </g>
  </g>
</svg>